<svg fill="none" viewBox="0 0 170 28" xmlns="http://www.w3.org/2000/svg"><g clip-path="url(#a)" fill="#fff"><path d="M12.72 6.271C5.707 6.271 0 11.956 0 18.941v8.42h4.767v-8.42c0-4.368 3.568-8.304 7.953-8.304 4.386 0 7.954 3.936 7.954 8.304v8.42h4.767v-8.42c0-6.986-5.707-12.67-12.72-12.67zm26.904 0h-.004c-6.846.04-11.445 4.407-11.445 10.863 0 6.457 4.74 10.864 11.515 10.864h.21c5.279 0 9.446-2.888 10.809-7.44h-5.014c-1.12 2.027-3.254 3.138-5.995 3.077-3.561 0-6.008-1.929-6.551-5.093h17.849l.035-.717c.16-3.353-.802-6.219-2.782-8.286-2.047-2.14-5.03-3.27-8.628-3.27l.001.002zm-6.192 8.143c.826-2.416 3.033-3.78 6.192-3.78s5.45 1.365 6.188 3.78H33.43h.001zm31.995-8.143c-6.856 0-11.643 4.467-11.643 10.864S58.572 28 65.427 28 77.07 23.532 77.07 17.137 72.282 6.271 65.427 6.271zm0 17.366c-4.258 0-6.8-2.43-6.8-6.5s2.542-6.503 6.8-6.503 6.8 2.43 6.8 6.502-2.542 6.501-6.8 6.501zm75.343-17.52v1.108h-4.145v4.284h4.145v15.852h4.767V11.51h6.807V7.225h-6.807V5.732c0-1.062.299-1.37 1.336-1.37h5.469V0h-5.198c-4.349 0-6.374 1.944-6.374 6.117zm29.21 5.356h.025V7.189h-6.807V0l-4.766.988v6.2h-3.587v4.284h3.587v9.772c0 4.173 2.025 6.117 6.373 6.117h5.199V23h-5.47c-1.037 0-1.336-.308-1.336-1.37V11.474h6.782zm-45.9-5.202c-6.856 0-11.644 4.467-11.644 10.864S117.224 28 124.08 28c6.855 0 11.643-4.468 11.643-10.863S130.935 6.271 124.08 6.271zm0 17.366c-4.259 0-6.8-2.43-6.8-6.5s2.541-6.503 6.8-6.503c4.258 0 6.799 2.43 6.799 6.502s-2.541 6.501-6.799 6.501zM105.67 7.646c-1.333-.938-2.906-1.414-4.675-1.414-1.544 0-2.857.31-3.904.917a7.375 7.375 0 00-2.5 2.374 12.158 12.158 0 00-1.41 3.073 37.73 37.73 0 00-.814 3.163 46.019 46.019 0 01-.878 3.298c-.275.889-.676 1.607-1.193 2.133-.429.437-1.1.658-1.996.658-.714 0-1.36-.209-1.917-.623-.6-.446-1.081-1.05-1.426-1.793a5.9 5.9 0 01-.536-2.504c0-1.398.306-2.618.911-3.625.591-.986 1.462-1.738 2.586-2.242l1.033-.462-2.128-4.012-.897.38c-2.006.849-3.55 2.196-4.59 4.008-1.014 1.768-1.528 3.743-1.528 5.872 0 1.73.366 3.344 1.09 4.8.73 1.469 1.745 2.664 3.018 3.549 1.306.909 2.808 1.37 4.466 1.37 1.55 0 2.859-.31 3.89-.92a7.26 7.26 0 002.48-2.423 12.794 12.794 0 001.402-3.1 38.35 38.35 0 00.82-3.186c.238-1.152.512-2.251.813-3.264.262-.869.653-1.567 1.161-2.075.432-.43 1.119-.647 2.047-.647.879 0 1.628.224 2.226.667.627.463 1.114 1.106 1.446 1.91.353.857.532 1.85.532 2.953 0 1.542-.324 2.891-.964 4.012a5.587 5.587 0 01-2.614 2.383l-1.012.452 2.044 4.072.918-.388c2.012-.849 3.58-2.264 4.658-4.203 1.051-1.884 1.583-4.013 1.583-6.327 0-1.884-.363-3.61-1.081-5.126-.73-1.545-1.761-2.791-3.064-3.708l.003-.002zM45.935 0H33.29v3.899h12.644V0z"/></g><defs><clipPath id="a"><path fill="#fff" d="M0 0h170v28H0z"/></clipPath></defs><script xmlns=""/></svg>